# xmcd
#
# Track frame offsets:
#	150
#	17578
#	30084
#	42661
#	51611
#	62385
#	74878
#	88577
#	104271
#	119018
#	130486
#	146351
#	159054
#	175901
#	187926
#	203742
#
# Disc length: 2864 seconds
#
# Revision: 2
# Processed by: cddbd v1.5.2PL0 Copyright (c) Steve Scherf et al.
# Submitted via: audiograbber 1.83.01
#
DISCID=de0b2e10
DTITLE=Various Artist - Swedish folk tunes from Dalecarlia
DYEAR=2004
DGENRE=Contemporary ChristianChristian Rock
TTITLE0=Choir - Kom min vän
TTITLE1=Choir - O Gud, som allt med vishet styr
TTITLE2=Organ - O Gud, som allt med vishet styr
TTITLE3=Choir - Så går en dag än från vår tid 1,59
TTITLE4=Organ - Så går en dag än från vår tid
TTITLE5=Choir - Befall i Herrens händer 2,46
TTITLE6=Organ - Befall i Herrens händer
TTITLE7=Choir - Den signade dag 3,29
TTITLE8=Organ - Den signade dag
TTITLE9=Choir - Har du din lampa redo 2,32
TTITLE10=Organ - Har du din lampa redo
TTITLE11=Organ - I himmelen, i himmelen
TTITLE12=Choir - I himmelen, i himmelen 3,44
TTITLE13=Organ - Mitt farväl jag blandar med kärlekens gråt
TTITLE14=Organ - Jag står på brudrätten min
TTITLE15=Organ - Den signade dag
EXTD=
EXTT0=
EXTT1=
EXTT2=
EXTT3=
EXTT4=
EXTT5=
EXTT6=
EXTT7=
EXTT8=
EXTT9=
EXTT10=
EXTT11=
EXTT12=
EXTT13=
EXTT14=
EXTT15=
PLAYORDER=
